<?xml version="1.0" encoding="UTF-8"?>
<svg width="100px" height="102px" viewBox="0 0 100 102" version="1.1" xmlns="http://www.w3.org/2000/svg" xmlns:xlink="http://www.w3.org/1999/xlink">
    <!-- Generator: Sketch 46.2 (44496) - http://www.bohemiancoding.com/sketch -->
    <title>icon</title>
    <desc>Created with Sketch.</desc>
    <defs></defs>
    <g id="Page-1" stroke="none" stroke-width="1" fill="none" fill-rule="evenodd">
        <g id="noms-landing" transform="translate(-393.000000, -1419.000000)" fill-rule="nonzero" fill="#4A4A4A">
            <g id="features" transform="translate(293.000000, 1083.000000)">
                <g id="loading" transform="translate(0.000000, 336.689441)">
                    <g id="icon" transform="translate(100.000000, 0.000000)">
                        <path d="M10.5590062,50 C10.5590062,47.0669427 8.21256039,44.7204969 5.27950311,44.7204969 C2.34644582,44.7204969 0,47.0669427 0,50 C0,52.9330573 2.34644582,55.2795031 5.27950311,55.2795031 C8.21256039,55.2795031 10.5590062,52.9330573 10.5590062,50 Z" id="Shape"></path>
                        <path d="M8.1739988,67.7645897 C5.74034609,69.1753271 4.8132403,72.4670477 6.31978721,74.9358382 C7.24689301,76.5816985 9.10110459,77.6397516 10.839428,77.6397516 C11.7665337,77.6397516 12.5777513,77.4046287 13.5048571,76.9343829 C16.054398,75.406084 16.8656156,72.2319248 15.4749569,69.7631344 C13.96841,67.1767825 10.7235397,66.3538523 8.1739988,67.7645897 Z" id="Shape"></path>
                        <path d="M30.2457004,84.5055045 C27.7850412,83.1633384 24.5041623,83.9462686 23.0980714,86.2950593 C21.5748062,88.6438499 22.5122001,91.7755708 24.9728593,93.1177368 C24.9728593,93.1177368 24.9728593,93.1177368 24.9728593,93.1177368 C25.793079,93.5651255 26.730473,93.7888199 27.667867,93.7888199 C29.5426549,93.7888199 31.3002686,92.8940425 32.2376626,91.3281821 C33.6437535,88.9793914 32.8235338,85.8476706 30.2457004,84.5055045 Z" id="Shape"></path>
                        <path d="M91.7417221,67.8253181 C89.2630282,66.2881176 85.9581031,67.2340871 84.5417066,69.717257 C83.1253101,72.200427 83.9515414,75.5113202 86.4302352,76.9302744 C87.2564665,77.4032592 88.2007309,77.6397516 89.1449952,77.6397516 C91.0335239,77.6397516 92.8040195,76.6937821 93.7482838,75.0383354 C95.1646803,72.6734117 94.220416,69.3625185 91.7417221,67.8253181 Z" id="Shape"></path>
                        <path d="M50,90.0621118 C47.0669427,90.0621118 44.7204969,92.4085576 44.7204969,95.3416149 C44.7204969,98.2746722 47.0669427,100.621118 50,100.621118 C50,100.621118 50,100.621118 50,100.621118 C52.9330573,100.621118 55.2795031,98.2746722 55.2795031,95.3416149 C55.2795031,92.4085576 52.9330573,90.0621118 50,90.0621118 Z" id="Shape"></path>
                        <path d="M69.6795167,84.5347761 C67.2318921,85.9455135 66.2994637,89.2372341 67.8146599,91.7060245 C68.7470883,93.3518848 70.6119452,94.4099379 72.3602484,94.4099379 C73.2926769,94.4099379 74.1085517,94.174815 75.0409802,93.7045692 C77.4886048,92.2938318 78.4210332,89.0021112 76.905837,86.5333207 C75.3906408,83.9469688 72.2436949,83.1240387 69.6795167,84.5347761 Z" id="Shape"></path>
                        <path d="M14.1019706,23.0965753 C11.6232767,21.5763988 8.31835153,22.511892 6.90195503,24.9675619 C5.48555853,27.5401684 6.31178982,30.6974581 8.79048369,32.2176347 C9.61671498,32.6853813 10.5609793,32.9192547 11.5052436,32.9192547 C13.3937723,32.9192547 15.1642679,31.9837614 16.1085323,30.3466482 C17.5249288,27.7740417 16.5806644,24.6167519 14.1019706,23.0965753 Z" id="Shape"></path>
                        <path d="M24.9590198,6.24463493 C22.5113952,7.58680101 21.5789668,10.7185219 23.094163,13.0673125 C24.0265914,14.6331729 25.7748947,15.5279503 27.6397516,15.5279503 C28.57218,15.5279503 29.3880548,15.304256 30.3204833,14.8568673 C32.7681079,13.402854 33.7005363,10.3829803 32.1853401,8.0341897 C30.6701439,5.68539906 27.4066444,4.90246885 24.9590198,6.24463493 Z" id="Shape"></path>
                        <path d="M49.892176,0 C47.0190209,0 44.7204969,2.29852404 44.7204969,5.17167908 C44.7204969,8.04483413 47.0190209,10.3433582 49.892176,10.3433582 C71.8430805,10.3433582 89.6566418,28.1569195 89.6566418,50.107824 C89.6566418,52.9809791 91.9551659,55.2795031 94.8283209,55.2795031 C97.701476,55.2795031 100,52.9809791 100,50.107824 C100,22.5255356 77.4744644,0 49.892176,0 Z" id="Shape"></path>
                    </g>
                </g>
            </g>
        </g>
    </g>
</svg>