<?xml version="1.0" encoding="UTF-8"?>
<svg width="100px" height="74px" viewBox="0 0 100 74" version="1.1" xmlns="http://www.w3.org/2000/svg" xmlns:xlink="http://www.w3.org/1999/xlink">
    <!-- Generator: Sketch 46.2 (44496) - http://www.bohemiancoding.com/sketch -->
    <title>icon</title>
    <desc>Created with Sketch.</desc>
    <defs></defs>
    <g id="Page-1" stroke="none" stroke-width="1" fill="none" fill-rule="evenodd">
        <g id="noms-landing" transform="translate(-779.000000, -1096.000000)" fill="#4A4A4A">
            <g id="features" transform="translate(293.000000, 1083.000000)">
                <g id="multiuser" transform="translate(392.000000, 13.414634)">
                    <g id="icon" transform="translate(94.000000, 0.000000)">
                        <path d="M37.5686886,35.3305513 C37.0409239,35.3134418 36.5234796,35.4782247 36.1043602,35.7968745 C30.9152986,39.7431138 27.5449102,45.9702006 27.5449102,52.9281061 L27.5449102,70.7877765 C27.5451025,72.0392386 28.5676965,73.0537014 29.8291893,73.0538922 L70.7696131,73.0538922 C72.0311059,73.0537014 73.0536999,72.0392386 73.0538922,70.7877765 L73.0538922,52.9281061 C73.0538922,45.9702006 69.6823615,39.7415272 64.4808487,35.7955147 C63.7410243,35.2342766 62.7318479,35.1747338 61.9301826,35.645022 C58.5255249,37.6427893 54.5581648,38.7857629 50.2994012,38.7857629 C46.0406376,38.7857629 42.073049,37.6432426 38.6545694,35.6435488 C38.3247658,35.4505959 37.9513684,35.3429667 37.5686886,35.3305513 L37.5686886,35.3305513 Z M37.7603684,40.3255929 C41.5253109,42.239048 45.793213,43.3179942 50.2994012,43.3179942 C54.8047897,43.3179942 59.0723491,42.2400679 62.8305521,40.3259328 C66.3030631,43.4502419 68.4853339,47.9396373 68.4853339,52.9281061 L68.4853339,68.5216609 L32.1134685,68.5216609 L32.1134685,52.9281061 C32.1134685,47.9404305 34.2963105,43.449902 37.7603684,40.3255929 L37.7603684,40.3255929 Z" id="Shape"></path>
                        <path d="M50.0056372,0 C41.2687177,0 34.1317365,7.12602233 34.1317365,15.8682635 C34.1317365,24.6104933 41.2687177,31.7365269 50.0056372,31.7365269 C58.7424439,31.7365269 65.8682635,24.6082377 65.8682635,15.8682635 C65.8682635,7.128278 58.7424439,0 50.0056372,0 Z M50.0056372,4.51063354 C56.308657,4.51063354 61.359213,9.5629428 61.359213,15.8682635 C61.359213,22.1735729 56.308657,27.2258934 50.0056372,27.2258934 C43.7025045,27.2258934 38.640787,22.1713172 38.640787,15.8682635 C38.640787,9.56519847 43.7025045,4.51063354 50.0056372,4.51063354 Z" id="Shape"></path>
                        <path d="M72.3159407,32.3366545 C71.7993233,32.3199939 71.29274,32.4836518 70.8810229,32.800222 C70.1732595,33.3445342 69.5276141,33.9349861 68.9313476,34.5519683 C68.3533014,35.1321399 68.1286767,35.9828216 68.3435917,36.7778735 C68.5585066,37.5729254 69.1796157,38.1889903 69.9687942,38.3898772 C70.7579727,38.5907641 71.5927747,38.3453043 72.1531483,37.7476037 C72.2786247,37.6177499 72.4053412,37.4917792 72.533636,37.3682069 C75.4091084,38.7964838 78.6488343,39.5984477 82.0525926,39.5984477 C85.4641299,39.5984477 88.6990081,38.7957985 91.5710983,37.3685495 C93.987167,39.7047747 95.4911926,42.9793273 95.4911926,46.6111204 L95.4911926,58.3062937 L77.5092877,58.3062937 C76.694482,58.2918765 75.9354057,58.7239864 75.5238392,59.4365253 C75.1122726,60.1490641 75.1122726,61.0311312 75.5238392,61.7436701 C75.9354057,62.456209 76.694482,62.8883189 77.5092877,62.8739017 L97.7455963,62.8739017 C98.9905904,62.8737094 99.9998102,61.8513281 100,60.5900977 L100,46.6111204 C100,41.0035404 97.3370371,35.9810447 93.2286718,32.8037625 C92.5001027,32.2404453 91.5074294,32.1799501 90.7174531,32.6507246 C88.1774863,34.1643486 85.2311023,35.0308397 82.0525926,35.0308397 C78.8865968,35.0308397 75.9254443,34.1629782 73.3876195,32.6507246 C73.062003,32.4567458 72.693497,32.3487501 72.3159407,32.3366545 L72.3159407,32.3366545 Z" id="Shape"></path>
                        <path d="M81.7365269,4.79041916 C74.6532393,4.79041916 68.8622754,10.583945 68.8622754,17.6703298 C68.8622754,24.7477619 74.6532393,30.5389222 81.7365269,30.5389222 C88.8198146,30.5389222 94.6107784,24.7477619 94.6107784,17.6703298 C94.6107784,10.583945 88.8198146,4.79041916 81.7365269,4.79041916 Z M81.7365269,9.31705012 C86.3738686,9.31705012 90.0861177,13.0309117 90.0861177,17.6703298 C90.0861177,22.2960528 86.3738686,26.0122912 81.7365269,26.0122912 C77.0991853,26.0122912 73.3869362,22.2960528 73.3869362,17.6703298 C73.3869362,13.0309117 77.0991853,9.31705012 81.7365269,9.31705012 Z" id="Shape"></path>
                        <path d="M8.20233702,32.3366815 C7.68233307,32.3199073 7.17259154,32.4856962 6.75947632,32.805959 C2.66242387,35.9834668 0,41.0035598 0,46.6111348 L0,60.5900997 C0.000189912723,61.8513289 1.00976088,62.8737092 2.25518845,62.8739017 L22.4872669,62.8739017 C23.3023563,62.8883188 24.061697,62.4562093 24.4734069,61.7436711 C24.8851168,61.0311329 24.8851168,60.1490665 24.4734069,59.4365283 C24.061697,58.7239901 23.3023563,58.2918806 22.4872669,58.3062977 L4.51037723,58.3062977 L4.51037723,46.6111348 C4.51037723,42.981058 6.01447572,39.7059373 8.42292757,37.3696 C11.2986119,38.7970761 14.5385638,39.5984683 17.9423798,39.5984683 C21.3552178,39.5984683 24.5913354,38.7959341 27.4645386,37.3685721 C27.5928781,37.4921443 27.7200898,37.6178865 27.8454971,37.7476259 C28.4060659,38.345326 29.2411586,38.5907856 30.0306119,38.3898989 C30.8200652,38.1890121 31.4413907,37.5729478 31.6563804,36.7778966 C31.8713702,35.9828454 31.6466673,35.1321645 31.0684198,34.5519934 C30.4719457,33.9350117 29.8257371,33.3445603 29.11784,32.8002487 C28.389253,32.2400734 27.3987169,32.1810196 26.6102577,32.6507514 C24.0694064,34.1643741 21.1219963,35.0308643 17.9423798,35.0308643 C14.7752814,35.0308643 11.8130976,34.1630036 9.27438906,32.6507514 C8.94865915,32.4567727 8.58002483,32.3487771 8.20233702,32.3366815 L8.20233702,32.3366815 Z" id="Shape"></path>
                        <path d="M18.2578139,4.79041916 C11.1714126,4.79041916 5.38922156,10.5868651 5.38922156,17.6703298 C5.38922156,24.7448418 11.1714126,30.5389222 18.2578139,30.5389222 C25.3442152,30.5389222 31.1377246,24.7477619 31.1377246,17.6703298 C31.1377246,10.583945 25.3442152,4.79041916 18.2578139,4.79041916 Z M18.2578139,9.31705012 C22.897194,9.31705012 26.6110749,13.0309117 26.6110749,17.6703298 C26.6110749,22.2960528 22.897194,26.0122912 18.2578139,26.0122912 C13.6184338,26.0122912 9.91587118,22.2989729 9.91587118,17.6703298 C9.91587118,13.0280029 13.6184338,9.31705012 18.2578139,9.31705012 L18.2578139,9.31705012 Z" id="Shape"></path>
                    </g>
                </g>
            </g>
        </g>
    </g>
</svg>