<?xml version="1.0" encoding="UTF-8"?>
<svg width="99px" height="99px" viewBox="0 0 99 99" version="1.1" xmlns="http://www.w3.org/2000/svg" xmlns:xlink="http://www.w3.org/1999/xlink">
    <!-- Generator: Sketch 46.2 (44496) - http://www.bohemiancoding.com/sketch -->
    <title>icon</title>
    <desc>Created with Sketch.</desc>
    <defs></defs>
    <g id="Page-1" stroke="none" stroke-width="1" fill="none" fill-rule="evenodd">
        <g id="noms-landing" transform="translate(-780.000000, -1420.000000)" fill-rule="nonzero" fill="#4A4A4A">
            <g id="features" transform="translate(293.000000, 1083.000000)">
                <g id="search" transform="translate(387.000000, 337.000000)">
                    <g id="icon" transform="translate(99.000000, 0.000000)">
                        <path d="M18.5185296,40.5734899 C18.6108114,18.0950041 36.8917971,-0.0613023581 59.3704806,0.000155563718 C81.8491641,0.0616134856 100.030596,18.3176102 99.9999613,40.7962645 C99.9693269,63.2749188 81.7382036,81.4812921 59.259436,81.4814815 C36.7250694,81.4055593 18.5021313,63.1078859 18.5185296,40.5734899 Z M30.4623742,40.5734899 C30.5708708,56.4515362 43.5114012,69.2455756 59.3897192,69.1733681 C75.2680372,69.1011605 88.0916706,56.1899571 88.055752,40.3115808 C88.0198333,24.4332044 75.1379182,11.5801494 59.259436,11.5797787 C43.31153,11.655676 30.4340604,24.6255144 30.4722126,40.5734899 L30.4623742,40.5734899 Z" id="Shape"></path>
                        <rect id="Rectangle-path" transform="translate(25.000000, 74.691358) rotate(-45.000000) translate(-25.000000, -74.691358) " x="14.1975309" y="72.2222222" width="21.6049383" height="4.9382716"></rect>
                        <rect id="Rectangle-path" transform="translate(17.283951, 82.716049) rotate(-45.000000) translate(-17.283951, -82.716049) " x="0" y="75.9259259" width="34.5679012" height="13.5802469" rx="3.49"></rect>
                    </g>
                </g>
            </g>
        </g>
    </g>
</svg>