<?xml version="1.0" encoding="UTF-8"?>
<svg width="100px" height="100px" viewBox="0 0 100 100" version="1.1" xmlns="http://www.w3.org/2000/svg" xmlns:xlink="http://www.w3.org/1999/xlink">
    <!-- Generator: Sketch 46.2 (44496) - http://www.bohemiancoding.com/sketch -->
    <title>icon</title>
    <desc>Created with Sketch.</desc>
    <defs></defs>
    <g id="Page-1" stroke="none" stroke-width="1" fill="none" fill-rule="evenodd">
        <g id="noms-landing" transform="translate(-393.000000, -1083.000000)" fill-rule="nonzero" fill="#4A4A4A">
            <g id="features" transform="translate(293.000000, 1083.000000)">
                <g id="sync">
                    <g id="icon" transform="translate(100.000000, 0.000000)">
                        <path d="M19.1621909,50.9702793 C19.8071459,66.7863921 32.2762748,79.2974661 47.6477011,80.2469136 L44.6498549,77.470681 L45.8919904,76.1246289 L47.7313064,74.117569 C35.5727112,73.2161947 25.7550637,63.2770418 25.2414885,50.7299128 C24.7398568,38.3991136 33.3870306,27.8350079 45.1156557,25.6717098 L45.2589791,29.2772066 L51.8518519,22.0782313 L44.6856858,15.4320988 L44.8528963,19.4942919 C29.7681167,21.8378648 18.517236,35.2623314 19.1621909,50.9702793 Z" id="Shape"></path>
                        <path d="M80.2205254,48.4178664 C79.5755704,32.5988204 67.1064414,20.0854261 51.735015,19.1358025 L53.3951768,20.6624125 L54.7328612,21.9125499 L53.5026693,23.2588517 L51.6633533,25.2662838 C63.8100049,26.1678252 73.6276525,36.1088215 74.1412278,48.6582775 C74.6428594,60.9913635 65.9956856,71.569449 54.2670604,73.7331483 L54.123737,70.1149623 L47.5308642,77.3152727 L54.6850867,83.9506173 L54.5178762,79.8876708 C69.6145995,77.5556838 80.8654803,64.1407481 80.2205254,48.4178664 Z" id="Shape"></path>
                        <path d="M62.6892942,37.3644062 C56.1809044,30.7898476 45.8749587,30.3676282 38.8888889,36.121875 L41.2653468,36.121875 L41.2653468,37.1955185 L41.2653468,38.7999521 C46.8542026,34.3244268 54.9986464,34.6863291 60.1695322,39.9097858 C65.2448821,45.0367352 65.6867361,53.0709665 61.4831522,58.7045791 L60.0023443,57.2087162 L60.0023443,62.962963 L65.6986781,62.962963 L64.0267981,61.2740855 C69.603712,54.2049271 69.161858,43.9027746 62.6892942,37.3644062 Z" id="Shape"></path>
                        <path d="M37.3046391,62.6355938 C43.8114231,69.2101524 54.114826,69.6323718 61.1111111,63.878125 L58.7233005,63.878125 L58.7233005,61.2000479 C53.1358236,65.6755732 44.9933894,65.3136709 39.8237793,60.0902142 C34.7496818,54.9632648 34.3079368,46.9290335 38.4985444,41.2954209 L39.978987,42.7912838 L39.978987,37.037037 L34.2959977,37.037037 L35.9674652,38.7259145 C30.4038664,45.7950729 30.8336723,56.1092888 37.3046391,62.6355938 Z" id="Shape"></path>
                        <path d="M88.89977,18.5185185 L88.89977,25.2162819 L81.4972442,25.2162819 C93.8666259,40.9205528 92.8517635,63.7915508 78.4407175,78.3053755 C64.2804021,92.5666813 42.096704,93.8052264 26.5394604,82.0210108 L30.6944265,77.8364118 L14.8148148,77.8364118 L14.8148148,93.8292758 L19.4831819,89.1276143 C38.9685399,104.783786 67.4324453,103.533217 85.4731169,85.3638801 C103.621245,67.0863213 104.767442,38.1548696 88.89977,18.5185185 Z" id="Shape"></path>
                        <path d="M21.5464383,21.7034463 C35.706955,7.44424481 57.8909684,6.2179054 73.4484332,17.9883592 L69.3053478,22.1603178 L85.1851852,22.1603178 L85.1851852,6.16981365 L80.5167518,10.8707814 C61.0311167,-4.78308057 32.5787464,-3.53269528 14.5378183,14.6339602 C-3.622507,32.9208451 -4.76872083,61.8480278 11.0991768,81.4814815 L11.0991768,74.7847064 L18.5018078,74.7847064 C6.13225026,59.0827527 7.14712709,36.2031065 21.5464383,21.7034463 Z" id="Shape"></path>
                    </g>
                </g>
            </g>
        </g>
    </g>
</svg>